<!DOCTYPE svg PUBLIC "-//W3C//DTD SVG 1.1//EN" "http://www.w3.org/Graphics/SVG/1.1/DTD/svg11.dtd">
<!-- Uploaded to: SVG Repo, www.svgrepo.com, Transformed by: SVG Repo Mixer Tools -->
<svg fill="#ffffff" width="800px" height="800px" viewBox="0 0 24 24" xmlns="http://www.w3.org/2000/svg" stroke="#ffffff">
<g id="SVGRepo_bgCarrier" stroke-width="0"/>
<g id="SVGRepo_tracerCarrier" stroke-linecap="round" stroke-linejoin="round"/>
<g id="SVGRepo_iconCarrier">
<path d="M21,1H3A1,1,0,0,0,2,2V22a1,1,0,0,0,1,1H17a1.011,1.011,0,0,0,.383-.077,1,1,0,0,0,.325-.217l4-4A1.131,1.131,0,0,0,22,18V2A1,1,0,0,0,21,1ZM16,18v3H4V3H20V17H17A1,1,0,0,0,16,18Zm1-8a1,1,0,0,1-1,1H8A1,1,0,0,1,8,9h8A1,1,0,0,1,17,10Zm-4,4a1,1,0,0,1-1,1H8a1,1,0,0,1,0-2h4A1,1,0,0,1,13,14Z"/>
</g>
</svg>