<svg version="1.1" id="Layer_1" xmlns="http://www.w3.org/2000/svg" xmlns:xlink="http://www.w3.org/1999/xlink" x="0px" y="0px"
	 width="100%" viewBox="0 0 4857 4856" enable-background="new 0 0 4857 4856" xml:space="preserve">
<path fill="#2ECC71" opacity="1.000000" stroke="none" 
	d="
M4864.000000,2384.000000 
	C4864.000000,2416.083740 4864.000000,2448.167236 4862.791016,2483.280273 
	C4861.180664,2513.618164 4860.779297,2540.926514 4860.291504,2570.084473 
	C4859.604492,2631.976807 4852.181641,2691.421875 4844.793945,2750.888672 
	C4833.536133,2841.509521 4816.390137,2931.040283 4794.475098,3019.623047 
	C4751.793945,3192.140137 4690.607422,3357.947998 4611.255859,3516.953857 
	C4545.369629,3648.976318 4467.953613,3773.945801 4379.182617,3891.838379 
	C4374.825684,3897.624756 4369.869629,3902.959961 4364.327148,3907.391602 
	C4355.045898,3898.719971 4346.604492,3891.188232 4338.215820,3883.598633 
	C4297.710938,3846.952637 4256.801758,3810.740723 4216.828613,3773.523438 
	C4164.654297,3724.946045 4112.845703,3675.961426 4061.571045,3626.436279 
	C3995.416504,3562.539062 3931.337891,3496.570557 3870.275146,3427.773926 
	C3845.532471,3399.897461 3821.789551,3371.073975 3798.677002,3341.823486 
	C3759.852051,3292.688232 3721.106201,3243.514648 3679.353760,3196.799316 
	C3658.936035,3173.954834 3638.436523,3151.182129 3618.181152,3128.194336 
	C3615.198486,3124.809082 3613.367432,3120.409424 3611.414795,3114.719727 
	C3613.162842,3098.409424 3614.740479,3083.875977 3615.782471,3069.304199 
	C3617.536621,3044.772461 3618.946533,3020.216309 3620.519287,2995.671387 
	C3620.604248,2994.344482 3620.869385,2993.030029 3621.027344,2991.706787 
	C3623.305908,2972.600830 3625.566406,2953.492920 3627.861084,2934.388916 
	C3629.603271,2919.882324 3630.344971,2905.162109 3633.331299,2890.914062 
	C3647.098877,2825.232910 3661.410400,2759.665039 3675.707031,2694.095947 
	C3682.503418,2662.925781 3689.502686,2631.795410 3696.914307,2600.767578 
	C3698.188721,2595.431396 3698.130859,2588.753906 3704.931885,2584.656738 
	C3711.753418,2588.985840 3716.806885,2595.195801 3722.176270,2600.920654 
	C3736.290771,2615.969727 3750.147949,2631.259521 3764.182617,2646.383789 
	C3769.168213,2651.757080 3774.487549,2656.821533 3779.450928,2662.214111 
	C3804.688965,2689.634277 3829.741943,2717.225342 3855.091309,2744.541748 
	C3876.377686,2767.479980 3897.939209,2790.163330 3919.457275,2812.885254 
	C3945.100586,2839.962158 3970.757568,2867.026611 3996.535645,2893.975098 
	C4028.302246,2927.184082 4059.765869,2960.698486 4092.138428,2993.308594 
	C4145.170410,3046.728027 4196.805664,3101.594238 4253.478027,3151.297363 
	C4256.925781,3154.321045 4260.809570,3156.925781 4264.760254,3159.270508 
	C4267.569824,3160.937988 4271.813477,3157.903564 4271.627930,3154.487549 
	C4271.449707,3151.205322 4271.169922,3147.846924 4270.299805,3144.697510 
	C4263.570312,3120.337402 4256.997559,3095.927002 4249.775879,3071.711426 
	C4239.126953,3036.004639 4227.982910,3000.445557 4217.047852,2964.823975 
	C4197.326660,2900.583252 4177.717285,2836.308105 4157.844727,2772.114014 
	C4143.479492,2725.709717 4128.853516,2679.385498 4114.183105,2633.076416 
	C4087.452148,2548.696777 4060.652588,2464.338867 4033.778564,2380.004395 
	C4020.037109,2336.881104 4005.990234,2293.854980 3992.345947,2250.701172 
	C3991.057861,2246.628174 3987.372314,2242.387939 3990.933105,2237.447510 
	C3997.491943,2236.927734 4001.838135,2241.371826 4006.705078,2244.610352 
	C4046.053711,2270.793701 4085.343994,2297.065430 4124.765137,2323.139404 
	C4140.864258,2333.787842 4157.107422,2344.232910 4173.541504,2354.354004 
	C4184.301270,2360.979736 4195.489746,2366.914062 4206.554688,2373.033691 
	C4209.473633,2374.647705 4212.657227,2375.907959 4215.961426,2371.450195 
	C4214.616699,2367.731934 4213.398438,2363.299316 4211.469727,2359.200928 
	C4197.573730,2329.672363 4183.460938,2300.246338 4169.566406,2270.717529 
	C4160.210938,2250.834473 4151.004395,2230.879883 4141.898438,2210.881104 
	C4123.691406,2170.894775 4105.654297,2130.831543 4087.437988,2090.849854 
	C4078.051514,2070.247559 4068.324707,2049.800293 4058.937012,2029.198486 
	C4032.989502,1972.252930 4007.145264,1915.260254 3981.248535,1858.291504 
	C3973.533203,1841.319580 3965.739990,1824.383057 3958.050537,1807.399536 
	C3939.928955,1767.375122 3921.840576,1727.335571 3903.754395,1687.295044 
	C3891.422363,1659.993530 3879.000977,1632.731079 3866.925781,1605.316162 
	C3865.125000,1601.227295 3865.011719,1596.395142 3864.064209,1591.951660 
	C3864.010742,1591.996460 3863.924316,1592.105347 3865.240723,1592.503662 
	C3870.519287,1595.343750 3874.557861,1597.671387 3878.432617,1600.245483 
	C3917.779785,1626.384277 3957.074463,1652.602051 3996.457520,1678.686401 
	C4001.989502,1682.350342 4007.865234,1685.511963 4013.686523,1688.715698 
	C4016.489990,1690.258423 4019.563965,1692.212280 4022.517090,1688.327271 
	C4017.622314,1673.989014 4012.366211,1659.656860 4007.824951,1645.101929 
	C3990.200684,1588.616333 3972.754150,1532.075317 3955.340332,1475.524536 
	C3944.971191,1441.851074 3934.600342,1408.176514 3924.561523,1374.403809 
	C3908.843506,1321.524536 3893.432861,1268.553955 3877.838623,1215.637939 
	C3869.382812,1186.944336 3860.702881,1158.316650 3852.325684,1129.600342 
	C3838.366455,1081.748047 3824.598145,1033.839966 3810.694092,985.971375 
	C3799.014893,945.762085 3787.260498,905.574585 3775.532471,865.379517 
	C3769.203125,843.687683 3762.870605,821.996887 3756.507568,800.314941 
	C3755.602051,797.229492 3755.090088,793.661743 3749.447510,793.944946 
	C3746.675781,799.264587 3743.237549,804.931824 3740.660889,810.966919 
	C3728.388184,839.710876 3716.338623,868.550171 3704.229980,897.364197 
	C3691.864014,926.790283 3679.576416,956.249146 3667.156738,985.652344 
	C3650.080566,1026.081177 3632.890381,1066.461792 3615.792480,1106.881226 
	C3603.616211,1135.666260 3591.528809,1164.488892 3579.370361,1193.281616 
	C3562.039551,1234.322876 3545.001709,1275.493164 3527.116455,1316.291626 
	C3522.369629,1327.119995 3520.535645,1339.469727 3510.778564,1347.593384 
	C3506.790771,1341.481445 3503.916016,1336.222046 3500.969727,1331.003052 
	C3366.159912,1092.185059 3172.529785,919.246155 2919.553955,813.321289 
	C2805.600586,765.607178 2686.459961,738.360413 2563.373291,729.153564 
	C2520.900879,725.976624 2478.266602,725.147522 2435.546875,726.677979 
	C2366.780029,729.141541 2298.794434,736.957397 2231.536377,751.309326 
	C2013.655396,797.801880 1824.463379,898.710938 1663.259644,1052.098999 
	C1582.621338,1128.827515 1514.830444,1215.868408 1459.026855,1312.218384 
	C1455.724854,1317.919800 1451.825439,1323.275391 1447.120728,1327.818604 
	C1442.255859,1318.358521 1438.352417,1309.923828 1434.713745,1301.376465 
	C1417.785034,1261.609985 1400.898193,1221.825806 1384.058716,1182.021729 
	C1371.623535,1152.628174 1359.356079,1123.163574 1346.884766,1093.785522 
	C1330.255005,1054.611694 1313.403564,1015.531677 1296.825806,976.335754 
	C1280.769043,938.371460 1264.979980,900.293945 1248.948608,862.318787 
	C1247.225952,858.237976 1244.671631,854.508240 1242.088379,849.871399 
	C1235.868286,857.311584 1234.975220,865.504883 1232.673462,872.994568 
	C1227.990234,888.233643 1224.101685,903.714844 1219.595215,919.010803 
	C1208.137085,957.903198 1196.373779,996.705994 1184.998413,1035.622314 
	C1167.098389,1096.860718 1149.523315,1158.194092 1131.603394,1219.426514 
	C1120.215698,1258.338501 1108.413330,1297.128662 1096.868530,1335.994751 
	C1083.432373,1381.228271 1070.142456,1426.505249 1056.658569,1471.724365 
	C1047.540771,1502.301880 1038.195557,1532.811523 1028.955322,1563.352661 
	C1011.246948,1621.883179 994.664490,1680.769653 973.510925,1738.211548 
	C972.393066,1741.247192 972.472778,1744.723755 971.438232,1748.199707 
	C971.256042,1748.271362 971.630493,1748.138184 973.494873,1748.167603 
	C981.551636,1745.340332 988.634521,1743.138428 994.600647,1739.231201 
	C1030.738281,1715.565186 1066.582764,1691.452026 1102.617676,1667.628296 
	C1110.902588,1662.150757 1119.548340,1657.218994 1128.012817,1652.016968 
	C1127.997681,1651.997803 1127.954956,1651.960693 1128.140381,1653.503174 
	C1125.834595,1662.592285 1123.860352,1670.359985 1120.745972,1677.640015 
	C1113.941528,1693.546631 1106.565796,1709.209106 1099.409302,1724.964844 
	C1079.868652,1767.985718 1060.323608,1811.004517 1040.775024,1854.021851 
	C1013.791138,1913.400513 986.893127,1972.818481 959.788391,2032.141968 
	C936.000793,2084.205566 911.979309,2136.162109 888.060303,2188.165527 
	C879.437561,2206.912598 870.811646,2225.658447 862.187622,2244.404785 
	C840.491882,2291.565674 818.787781,2338.722900 797.106445,2385.890137 
	C790.713196,2399.798584 784.288391,2413.694580 778.139526,2427.710693 
	C777.313232,2429.593994 778.025940,2432.152588 778.025940,2436.226807 
	C785.828430,2432.504639 792.063232,2430.163330 797.655151,2426.764404 
	C849.978210,2394.959717 901.673096,2362.179199 951.833862,2327.021240 
	C964.913391,2317.854004 978.258240,2309.052734 991.702942,2300.428955 
	C994.664795,2298.529053 998.030334,2294.880859 1003.571167,2299.569336 
	C1002.310303,2304.448242 1001.127747,2310.129150 999.376770,2315.628906 
	C981.212463,2372.680420 962.908264,2429.687500 944.739624,2486.737549 
	C925.762512,2546.326660 906.866516,2605.941406 887.981812,2665.559570 
	C872.312866,2715.025635 856.617249,2764.483643 841.104797,2813.998779 
	C822.212769,2874.301758 803.369202,2934.620605 784.750244,2995.008057 
	C769.072144,3045.857666 753.583740,3096.767334 738.342407,3147.749268 
	C732.251038,3168.125000 726.952942,3188.741455 721.546814,3209.314697 
	C720.775635,3212.249268 721.440002,3215.560791 721.440002,3220.412109 
	C726.321533,3218.653076 730.498474,3218.233887 733.157715,3216.004150 
	C745.389099,3205.750732 757.794373,3195.588623 769.055298,3184.313232 
	C823.644531,3129.654297 879.434021,3076.207031 931.771729,3019.281006 
	C971.420898,2976.156006 1012.949463,2934.761475 1053.522827,2892.482666 
	C1085.332153,2859.335938 1116.959229,2826.014648 1148.667480,2792.770752 
	C1149.587158,2791.806396 1150.523682,2790.857422 1151.424561,2789.875977 
	C1177.070068,2761.943604 1202.676636,2733.975586 1228.368042,2706.085449 
	C1244.598633,2688.466553 1260.874390,2670.887451 1277.320679,2653.470703 
	C1280.772339,2649.815430 1283.603027,2644.473389 1291.026367,2645.906494 
	C1292.507812,2649.830566 1294.607178,2654.010254 1295.661865,2658.438965 
	C1299.047974,2672.656250 1301.990479,2686.978027 1305.207031,2701.236572 
	C1320.265381,2767.987793 1335.802612,2834.635742 1350.229614,2901.523193 
	C1356.379517,2930.035645 1362.859619,2958.589600 1364.511841,2987.938477 
	C1365.331665,3002.501953 1367.380005,3016.998779 1368.951904,3031.516846 
	C1371.165405,3051.961670 1374.519531,3072.352051 1375.404419,3092.851562 
	C1376.266846,3112.826660 1377.649292,3132.654785 1380.347412,3153.696045 
	C1375.243896,3160.537354 1370.871460,3166.398926 1365.777588,3171.546143 
	C1275.379272,3262.895508 1184.689209,3353.947021 1089.750854,3440.642822 
	C1066.153809,3462.191162 1042.841553,3484.051025 1019.288147,3505.647461 
	C1005.060059,3518.693604 990.717163,3531.618164 976.256042,3544.405518 
	C933.872681,3581.881836 891.450012,3619.313965 848.950439,3656.658936 
	C825.449890,3677.309326 801.854187,3697.853516 778.140930,3718.259277 
	C744.845032,3746.911377 711.455811,3775.456055 678.002014,3803.923828 
	C648.094910,3829.373535 618.004028,3854.607422 588.074707,3880.031250 
	C567.802734,3897.251221 547.669739,3914.634766 526.300781,3931.377197 
	C522.292786,3927.105225 519.481934,3923.383301 516.621216,3919.699951 
	C422.365143,3798.342773 340.555756,3669.077148 270.905579,3532.137207 
	C210.713089,3413.792480 160.714722,3291.235840 120.745255,3164.627197 
	C96.885353,3089.048096 76.651840,3012.472168 60.609142,2934.853516 
	C44.161430,2855.275391 31.174709,2775.136963 22.883034,2694.242676 
	C16.566572,2632.618408 11.500182,2570.946533 11.100253,2507.080811 
	C11.432587,2489.406006 11.346965,2473.625488 11.352345,2457.844971 
	C11.354116,2452.646729 9.662220,2448.884766 4.000000,2448.000000 
	C4.000000,2439.833252 4.000000,2431.666748 5.477697,2421.201660 
	C8.422132,2416.147705 11.127397,2413.403320 11.153425,2410.633789 
	C11.315391,2393.400635 10.877137,2376.161621 10.721756,2357.120605 
	C11.637844,2294.010498 16.562420,2232.993896 22.990623,2172.043945 
	C29.768665,2107.777100 39.327068,2043.965454 51.178810,1980.449463 
	C73.810219,1859.162964 105.956917,1740.467041 147.001495,1624.143799 
	C217.648849,1423.924683 313.318787,1236.431885 433.269165,1061.298706 
	C531.905518,917.285034 644.952576,785.545898 771.889832,665.803833 
	C876.815430,566.825684 989.767761,477.948151 1110.590088,399.070129 
	C1202.753906,338.901703 1298.457275,285.085327 1397.901855,237.958939 
	C1541.518311,169.899658 1690.417480,116.510002 1844.614014,77.953247 
	C1913.760132,60.663326 1983.394287,45.696499 2053.966064,35.518372 
	C2095.468262,29.532801 2137.010010,23.567989 2178.705078,19.243822 
	C2224.369141,14.507995 2270.230713,11.672420 2317.836914,8.327692 
	C2334.204834,8.272771 2348.750732,8.078564 2363.271729,7.375563 
	C2366.228760,7.232408 2369.093018,5.174950 2372.000000,3.999978 
	C2413.416992,4.000000 2454.833740,4.000000 2499.441895,4.992415 
	C2520.486816,6.559173 2538.341064,7.133514 2557.980469,7.921092 
	C2616.303955,11.059746 2672.660645,15.938269 2728.904297,22.508677 
	C2786.492188,29.236145 2843.746338,38.093548 2900.614746,49.143551 
	C3013.837646,71.143692 3124.974609,101.001465 3234.008545,138.821838 
	C3440.443604,210.427429 3633.478760,308.434265 3813.375488,432.254822 
	C3945.494629,523.190430 4067.518311,626.176025 4179.145508,741.457764 
	C4221.353516,785.047119 4262.128418,829.891785 4300.991211,876.462402 
	C4471.482910,1080.767700 4605.414062,1306.708740 4701.794922,1554.804810 
	C4751.093262,1681.704956 4789.368164,1811.850830 4816.436035,1945.293579 
	C4830.211914,2013.209839 4841.310059,2081.525635 4849.041992,2150.408203 
	C4854.614746,2200.060791 4860.156250,2249.688965 4860.063965,2301.598145 
	C4859.963867,2326.674561 4860.065430,2349.890137 4860.616699,2373.095459 
	C4860.703125,2376.754883 4862.821289,2380.366455 4864.000000,2384.000000 
z"/>
<path fill="#010228" opacity="1.000000" stroke="none" 
	d="
M527.474609,3931.945312 
	C547.669739,3914.634766 567.802734,3897.251221 588.074707,3880.031250 
	C618.004028,3854.607422 648.094910,3829.373535 678.002014,3803.923828 
	C711.455811,3775.456055 744.845032,3746.911377 778.140930,3718.259277 
	C801.854187,3697.853516 825.449890,3677.309326 848.950439,3656.658936 
	C891.450012,3619.313965 933.872681,3581.881836 976.256042,3544.405518 
	C990.717163,3531.618164 1005.060059,3518.693604 1019.288147,3505.647461 
	C1042.841553,3484.051025 1066.153809,3462.191162 1089.750854,3440.642822 
	C1184.689209,3353.947021 1275.379272,3262.895508 1365.777588,3171.546143 
	C1370.871460,3166.398926 1375.243896,3160.537354 1381.641968,3153.411621 
	C1387.945557,3148.086914 1392.935303,3144.736328 1397.117065,3140.574219 
	C1458.497925,3079.475342 1519.799072,3018.295898 1581.009399,2957.026123 
	C1585.168457,2952.863037 1588.452393,2947.825928 1593.474976,2943.146240 
	C1600.005127,2939.092285 1605.413696,2935.330322 1610.364624,2931.040039 
	C1628.452026,2915.365967 1646.208984,2899.306885 1664.420898,2883.780518 
	C1691.790649,2860.447266 1720.984863,2839.644531 1753.906006,2821.584229 
	C1758.563110,2820.024414 1761.722290,2818.963623 1764.813843,2817.732910 
	C1779.611328,2811.843018 1794.457153,2810.987305 1809.662476,2816.423584 
	C1823.449341,2821.352539 1837.507935,2825.522949 1851.282837,2830.483398 
	C1897.208252,2847.020996 1940.118286,2869.836670 1982.508423,2893.751465 
	C2013.836548,2911.425293 2045.307617,2928.846924 2076.814209,2946.200928 
	C2083.094482,2949.659912 2089.824707,2952.302002 2098.503174,2956.318359 
	C2098.928223,2944.507568 2096.966309,2934.794434 2096.264160,2925.138916 
	C2093.267822,2883.934082 2089.826416,2842.761719 2086.640137,2801.570557 
	C2083.249023,2757.725342 2078.816650,2713.922363 2076.897705,2670.010986 
	C2074.017090,2604.099121 2072.894043,2538.109863 2071.090820,2472.151611 
	C2068.922363,2392.823486 2071.226807,2313.535645 2073.563232,2234.256104 
	C2076.449707,2136.325684 2081.434570,2038.453003 2080.997070,1940.435181 
	C2080.720459,1878.445923 2080.520264,1816.453613 2080.809814,1754.465210 
	C2081.142822,1683.145874 2082.401855,1611.830811 2088.251709,1540.709961 
	C2089.612305,1524.170532 2092.816650,1507.766479 2095.538330,1491.360962 
	C2097.394775,1480.171753 2106.143066,1475.849121 2116.427979,1470.847168 
	C2117.464600,1489.218506 2114.464600,1505.497437 2113.042236,1521.912720 
	C2111.548340,1539.154419 2111.531738,1556.525757 2110.921143,1573.842163 
	C2110.334229,1590.494263 2109.665771,1607.145508 2109.304688,1623.802856 
	C2108.928467,1641.128174 2108.852295,1658.460327 2108.691406,1675.789917 
	C2108.536865,1692.453003 2108.392822,1709.116577 2108.334229,1725.780151 
	C2108.273193,1743.111328 2108.086426,1760.446655 2108.386719,1777.772705 
	C2108.673584,1794.317749 2106.961914,1810.963867 2109.940186,1827.829712 
	C2112.912842,1828.427368 2115.442383,1829.244873 2118.012451,1829.402466 
	C2134.644043,1830.422363 2151.286377,1831.260254 2167.920898,1832.235107 
	C2179.213379,1832.896973 2190.532471,1834.642578 2201.780273,1834.241943 
	C2239.076660,1832.912964 2276.346680,1830.845093 2313.625488,1829.033691 
	C2338.324463,1827.833740 2358.281250,1817.045288 2374.534180,1798.802734 
	C2380.492920,1792.114380 2383.418457,1784.674316 2383.806885,1775.358643 
	C2386.001221,1722.756958 2389.356934,1670.200439 2391.223389,1617.589722 
	C2392.483398,1582.077393 2397.939209,1547.445679 2406.657227,1513.067871 
	C2413.521484,1486.000366 2418.494629,1458.457642 2424.969971,1431.283936 
	C2426.625488,1424.337769 2429.943359,1417.402466 2434.017822,1411.514526 
	C2439.284912,1403.903198 2446.116943,1397.381714 2452.193848,1390.320679 
	C2454.537842,1387.597168 2456.657959,1384.681274 2459.405273,1381.184814 
	C2444.502197,1374.935547 2430.866943,1369.594482 2417.565186,1363.522705 
	C2406.678711,1358.553345 2396.032715,1352.989990 2385.622559,1347.086060 
	C2382.605957,1345.375244 2380.770508,1341.581421 2377.474365,1337.644653 
	C2397.869141,1330.293457 2418.875732,1329.700928 2437.711182,1317.528931 
	C2430.472900,1312.127075 2425.119141,1306.952271 2418.789307,1303.645508 
	C2404.117920,1295.981079 2398.551270,1283.237915 2396.845703,1267.936401 
	C2396.181885,1261.979248 2395.551758,1255.981689 2395.507568,1249.998169 
	C2395.300049,1222.020996 2395.356934,1194.041626 2395.172363,1166.064087 
	C2395.143799,1161.736938 2394.349854,1157.414795 2393.899902,1152.992188 
	C2365.373291,1153.149902 2340.766357,1162.853638 2317.643311,1174.173706 
	C2311.421631,1170.296143 2311.383789,1166.007202 2313.563721,1159.942139 
	C2338.979980,1147.805054 2365.280273,1135.245728 2392.394043,1122.298218 
	C2392.622803,1114.864014 2393.166748,1107.593872 2393.003662,1100.339722 
	C2392.659180,1085.014282 2391.874756,1069.699341 2391.431641,1054.375244 
	C2391.320801,1050.542236 2391.819824,1046.691528 2392.009033,1043.369385 
	C2416.924561,1034.237793 2474.719482,1019.045227 2501.397949,1015.988953 
	C2533.802979,1012.276611 2566.352539,1009.816956 2598.852051,1006.955505 
	C2603.478271,1006.548218 2608.176025,1007.020874 2612.837646,1006.929016 
	C2626.012451,1006.669617 2634.078613,1013.156738 2637.864746,1025.534180 
	C2639.421631,1030.623657 2641.584229,1035.557373 2642.781006,1040.721802 
	C2645.937500,1054.342529 2649.354736,1067.951538 2651.496826,1081.747070 
	C2654.744385,1102.662720 2655.929932,1124.009033 2668.875732,1142.616211 
	C2665.328125,1145.334106 2662.705078,1147.227051 2660.211914,1149.278320 
	C2655.370361,1153.261841 2652.707764,1158.367188 2651.871094,1164.652832 
	C2648.700439,1188.479370 2647.298340,1212.379761 2647.449951,1236.428101 
	C2647.521240,1247.724365 2651.401123,1255.190552 2662.269531,1259.733521 
	C2677.617432,1266.148804 2692.631836,1273.416016 2707.531006,1280.836670 
	C2724.846436,1289.460571 2741.774414,1298.875610 2756.287842,1311.888184 
	C2804.939453,1355.508545 2852.803223,1399.968384 2897.068604,1448.104370 
	C2907.869385,1459.849731 2918.658447,1471.934692 2927.342041,1485.240845 
	C2962.885742,1539.704346 2990.185547,1598.102295 3006.488525,1661.217773 
	C3013.850586,1689.719238 3016.667236,1718.647217 3013.229248,1748.366089 
	C3008.073975,1792.931519 2997.863770,1836.202393 2984.176514,1878.769287 
	C2975.808838,1904.792847 2966.172119,1930.315552 2953.073486,1954.407227 
	C2947.321045,1964.986572 2941.286377,1975.449341 2931.895508,1983.232666 
	C2920.611816,1992.584717 2909.062744,2001.635254 2897.347412,2010.442505 
	C2885.258057,2019.530884 2871.427979,2024.042358 2856.280762,2023.739502 
	C2847.644287,2023.566895 2838.939209,2023.206299 2830.412354,2021.939941 
	C2813.948975,2019.494507 2797.606689,2016.244751 2781.176514,2013.559082 
	C2776.745605,2012.834839 2772.179199,2012.939331 2767.232910,2012.636353 
	C2766.325928,2016.759033 2765.260010,2019.922241 2764.982422,2023.152954 
	C2763.710693,2037.968994 2765.803711,2052.352539 2770.713623,2066.402344 
	C2777.302246,2085.256348 2783.865479,2104.123779 2790.085693,2123.101807 
	C2805.965820,2171.552734 2815.850586,2221.148438 2814.282715,2272.294678 
	C2812.648926,2325.578369 2809.727295,2378.827881 2806.897217,2432.067139 
	C2805.659668,2455.346191 2803.007324,2478.546875 2801.424072,2501.812012 
	C2798.665527,2542.350098 2794.395020,2582.821289 2796.785156,2623.585693 
	C2798.032959,2644.870605 2798.581543,2666.206055 2799.010010,2687.527588 
	C2800.108398,2742.171875 2801.277588,2796.817627 2801.811523,2851.468994 
	C2802.215088,2892.776123 2801.646484,2934.092529 2801.626709,2975.404785 
	C2801.625000,2979.097656 2802.479248,2982.791016 2803.008545,2987.067871 
	C2824.082275,2984.470215 2843.654297,2981.113770 2861.979980,2972.624756 
	C2875.268555,2966.469238 2888.762207,2960.671875 2901.656738,2953.767090 
	C2935.713623,2935.529297 2969.283691,2916.376709 3003.441895,2898.335449 
	C3039.944824,2879.055420 3076.658447,2860.137207 3113.741699,2842.005371 
	C3138.282471,2830.006348 3163.969238,2820.598389 3190.647461,2814.227295 
	C3199.040771,2812.222900 3207.435059,2810.222168 3217.671875,2808.365234 
	C3224.133789,2808.392090 3228.777832,2808.537842 3233.367920,2808.107422 
	C3250.491699,2806.503418 3266.196289,2810.673096 3280.441162,2819.981689 
	C3294.786621,2829.356689 3309.225342,2838.676514 3322.868164,2849.016357 
	C3339.681396,2861.759521 3355.562744,2875.726074 3372.165283,2888.758301 
	C3378.257812,2893.540771 3383.386719,2900.232666 3392.169434,2902.349365 
	C3394.718506,2906.770264 3396.722412,2910.311279 3399.585205,2912.903320 
	C3422.636963,2933.773193 3446.513428,2953.778320 3468.861328,2975.368896 
	C3503.706787,3009.033691 3537.623779,3043.662842 3571.748535,3078.067871 
	C3578.247559,3084.620117 3583.721436,3092.176514 3589.967529,3098.995361 
	C3596.160645,3105.755615 3601.279053,3113.925293 3611.003418,3116.479248 
	C3613.367432,3120.409424 3615.198486,3124.809082 3618.181152,3128.194336 
	C3638.436523,3151.182129 3658.936035,3173.954834 3679.353760,3196.799316 
	C3721.106201,3243.514648 3759.852051,3292.688232 3798.677002,3341.823486 
	C3821.789551,3371.073975 3845.532471,3399.897461 3870.275146,3427.773926 
	C3931.337891,3496.570557 3995.416504,3562.539062 4061.571045,3626.436279 
	C4112.845703,3675.961426 4164.654297,3724.946045 4216.828613,3773.523438 
	C4256.801758,3810.740723 4297.710938,3846.952637 4338.215820,3883.598633 
	C4346.604492,3891.188232 4355.045898,3898.719971 4363.839844,3908.708252 
	C4362.667480,3913.303955 4361.190430,3915.525635 4359.557617,3917.626465 
	C4265.699707,4038.393066 4161.946777,4149.894043 4047.329590,4251.238770 
	C3802.265869,4467.925293 3525.027588,4629.187500 3215.246582,4734.408691 
	C3095.275146,4775.159180 2972.715576,4805.762695 2847.898193,4827.275391 
	C2768.459229,4840.967773 2688.403320,4849.839355 2606.292236,4855.758789 
	C2593.898438,4855.815918 2583.266113,4856.230469 2570.817139,4856.271484 
	C2558.182861,4856.078613 2547.353027,4856.024414 2536.556152,4856.596680 
	C2533.652344,4856.750977 2530.849365,4858.813477 2528.000000,4860.000000 
	C2469.249756,4860.000000 2410.499512,4860.000000 2348.528809,4859.080078 
	C2330.071289,4857.573242 2314.833984,4856.986816 2297.837891,4856.364258 
	C2286.677734,4856.322266 2277.277100,4856.316895 2266.143066,4856.007324 
	C2216.098145,4850.738770 2167.720215,4846.339844 2119.490234,4840.680664 
	C2043.436523,4831.756348 1968.284180,4817.545898 1893.630493,4800.543945 
	C1683.561646,4752.703613 1483.606934,4677.794434 1293.716309,4576.137207 
	C1015.671326,4427.286621 775.767944,4231.430176 573.165100,3989.835449 
	C557.376160,3971.007324 542.679138,3951.263428 527.474609,3931.945312 
M2446.161377,2324.398682 
	C2450.888672,2291.439941 2455.829834,2258.509766 2460.291748,2225.515381 
	C2466.628662,2178.655029 2472.996582,2131.792725 2478.585449,2084.840088 
	C2481.338379,2061.713623 2483.733643,2038.388306 2483.829102,2015.142822 
	C2483.940918,1987.860962 2481.559570,1960.556763 2479.853271,1933.287598 
	C2479.399658,1926.035767 2477.960205,1918.742798 2476.075684,1911.709106 
	C2473.631104,1902.583374 2468.123291,1899.605103 2459.537842,1903.280151 
	C2451.648193,1906.657349 2444.170410,1911.155273 2436.883057,1915.749146 
	C2421.993652,1925.134766 2406.306641,1931.678345 2388.461670,1932.858765 
	C2363.874023,1934.484985 2339.356201,1937.505371 2314.751221,1938.462036 
	C2265.479248,1940.377686 2216.176514,1941.917358 2167.227783,1932.992554 
	C2157.501221,1931.219238 2147.307617,1931.368164 2137.358643,1931.653198 
	C2129.023926,1931.891846 2125.421875,1935.513184 2124.182861,1943.889526 
	C2122.722168,1953.766602 2121.414551,1963.736694 2121.094971,1973.700317 
	C2119.619873,2019.675293 2119.461182,2065.649658 2122.281738,2111.598145 
	C2124.445312,2146.841309 2127.224121,2182.071777 2128.282715,2217.351318 
	C2130.122070,2278.631104 2130.515381,2339.953857 2132.196045,2401.239746 
	C2132.852783,2425.190186 2134.779785,2449.145996 2137.124512,2473.001465 
	C2141.880859,2521.385498 2147.557617,2569.678955 2152.369629,2618.057861 
	C2154.743164,2641.918457 2156.068604,2665.884033 2157.812744,2689.806152 
	C2161.890625,2745.733398 2161.604980,2801.687256 2158.328857,2857.627930 
	C2156.225586,2893.546875 2153.544678,2929.431885 2151.277832,2965.341797 
	C2150.994141,2969.836182 2151.658691,2974.390869 2151.886719,2978.968994 
	C2176.383301,2988.438232 2200.818115,2994.800781 2225.625977,2999.942383 
	C2233.895508,3001.656494 2241.032227,3000.020020 2248.530518,2996.054932 
	C2277.430176,2980.772217 2307.465088,2968.355225 2339.082520,2959.480469 
	C2358.901855,2953.917480 2378.035400,2945.889893 2397.414062,2938.798340 
	C2400.460938,2937.683350 2403.177002,2935.665039 2406.534180,2933.791992 
	C2406.809326,2927.027100 2407.179688,2920.409424 2407.331787,2913.786865 
	C2409.247803,2830.503906 2411.167725,2747.220947 2413.010254,2663.936523 
	C2413.939209,2621.950195 2415.905762,2580.040283 2420.836670,2538.300293 
	C2429.120361,2468.180664 2437.270508,2398.045654 2446.161377,2324.398682 
M2643.973633,2916.638672 
	C2645.052490,2906.045410 2647.005859,2895.457031 2647.061035,2884.858398 
	C2647.317871,2835.586182 2648.038086,2786.284424 2646.698975,2737.044678 
	C2645.269043,2684.473633 2641.739014,2631.958740 2639.082275,2579.421875 
	C2637.804443,2554.151611 2636.525635,2528.880127 2635.061035,2503.620361 
	C2633.948730,2484.427979 2632.542725,2465.252686 2631.262939,2446.005127 
	C2630.231445,2446.256592 2629.144531,2446.241699 2629.004639,2446.598389 
	C2627.313721,2450.901611 2625.453613,2455.174316 2624.222656,2459.617188 
	C2611.079590,2507.053467 2597.776367,2554.448486 2585.138428,2602.020020 
	C2581.394531,2616.114258 2578.858643,2630.635010 2577.059814,2645.120850 
	C2571.564453,2689.369873 2566.858398,2733.715820 2561.542969,2777.988037 
	C2555.429199,2828.908691 2549.394287,2879.816650 2552.682861,2931.266113 
	C2552.920654,2934.984863 2553.865967,2938.658447 2554.602295,2943.070801 
	C2580.757812,2939.497314 2605.573486,2935.106201 2629.764404,2927.804932 
	C2634.554932,2926.359131 2638.620850,2922.511719 2643.973633,2916.638672 
z"/>
<path fill="#78BCC1" opacity="1.000000" stroke="none" 
	d="
M4.000005,2361.864502 
	C5.466176,2359.747070 6.932342,2359.493896 9.518212,2359.082520 
	C10.877137,2376.161621 11.315391,2393.400635 11.153425,2410.633789 
	C11.127397,2413.403320 8.422132,2416.147705 5.477697,2419.451660 
	C4.000000,2401.242920 4.000000,2382.486084 4.000005,2361.864502 
z"/>
<path fill="#7ABDC2" opacity="1.000000" stroke="none" 
	d="
M11.100262,2507.080811 
	C9.241477,2508.577148 7.765196,2508.179199 5.144458,2507.890625 
	C4.000000,2489.242920 4.000000,2470.486084 4.000000,2449.864502 
	C9.662220,2448.884766 11.354116,2452.646729 11.352345,2457.844971 
	C11.346965,2473.625488 11.432587,2489.406006 11.100262,2507.080811 
z"/>
<path fill="#96CBCE" opacity="1.000000" stroke="none" 
	d="
M4860.063965,2301.598145 
	C4860.414062,2299.734375 4862.200195,2299.961670 4863.100098,2299.980957 
	C4864.000000,2326.750488 4864.000000,2353.501221 4864.000000,2382.125977 
	C4862.821289,2380.366455 4860.703125,2376.754883 4860.616699,2373.095459 
	C4860.065430,2349.890137 4859.963867,2326.674561 4860.063965,2301.598145 
z"/>
<path fill="#97CCCF" opacity="1.000000" stroke="none" 
	d="
M4864.000000,2566.125977 
	C4864.000000,2568.000000 4862.177734,2567.942383 4861.277832,2568.088623 
	C4860.779297,2540.926514 4861.180664,2513.618164 4862.791016,2485.154785 
	C4864.000000,2510.750488 4864.000000,2537.501221 4864.000000,2566.125977 
z"/>
<path fill="#96CBCE" opacity="1.000000" stroke="none" 
	d="
M2554.141357,4.000000 
	C2556.000000,4.000000 2555.960449,5.861160 2556.077637,6.784508 
	C2538.341064,7.133514 2520.486816,6.559173 2501.316406,4.992415 
	C2517.427490,4.000000 2534.855225,4.000000 2554.141357,4.000000 
z"/>
<path fill="#93CACD" opacity="1.000000" stroke="none" 
	d="
M2317.836914,8.327689 
	C2316.135498,7.340394 2316.265137,6.672076 2316.197510,5.001879 
	C2333.427490,4.000000 2350.855225,4.000000 2370.141357,3.999978 
	C2369.093018,5.174950 2366.228760,7.232408 2363.271729,7.375563 
	C2348.750732,8.078564 2334.204834,8.272771 2317.836914,8.327689 
z"/>
<path fill="#49516A" opacity="1.000000" stroke="none" 
	d="
M2299.596924,4856.400391 
	C2314.833984,4856.986816 2330.071289,4857.573242 2346.654297,4859.080078 
	C2333.228271,4860.000000 2318.456787,4860.000000 2301.913574,4859.081055 
	C2300.142090,4858.161621 2299.596924,4856.400391 2299.596924,4856.400391 
z"/>
<path fill="#434B65" opacity="1.000000" stroke="none" 
	d="
M2529.832275,4860.000000 
	C2530.849365,4858.813477 2533.652344,4856.750977 2536.556152,4856.596680 
	C2547.353027,4856.024414 2558.182861,4856.078613 2570.643066,4857.106934 
	C2572.285400,4858.316406 2572.000000,4860.000000 2572.000000,4860.000000 
	C2558.554932,4860.000000 2545.109619,4860.000000 2529.832275,4860.000000 
z"/>
<path fill="#B1B7C1" opacity="1.000000" stroke="none" 
	d="
M2573.799316,4860.000000 
	C2572.000000,4860.000000 2572.285400,4858.316406 2572.459473,4857.480469 
	C2583.266113,4856.230469 2593.898438,4855.815918 2606.292236,4855.758789 
	C2608.053711,4856.116211 2607.711670,4858.053711 2607.855957,4859.026855 
	C2597.199463,4860.000000 2586.399170,4860.000000 2573.799316,4860.000000 
z"/>
<path fill="#B9BEC7" opacity="1.000000" stroke="none" 
	d="
M2297.837891,4856.364258 
	C2299.596924,4856.400391 2300.142090,4858.161621 2300.071045,4859.081055 
	C2290.517822,4860.000000 2281.035400,4860.000000 2269.776611,4860.000000 
	C2268.000000,4860.000000 2268.063232,4858.151367 2267.969727,4857.231445 
	C2277.277100,4856.316895 2286.677734,4856.322266 2297.837891,4856.364258 
z"/>
<path fill="#FCBC6E" opacity="1.000000" stroke="none" 
	d="
M3215.828613,2808.219482 
	C3207.435059,2810.222168 3199.040771,2812.222900 3190.647461,2814.227295 
	C3163.969238,2820.598389 3138.282471,2830.006348 3113.741699,2842.005371 
	C3076.658447,2860.137207 3039.944824,2879.055420 3003.441895,2898.335449 
	C2969.283691,2916.376709 2935.713623,2935.529297 2901.656738,2953.767090 
	C2888.762207,2960.671875 2875.268555,2966.469238 2861.979980,2972.624756 
	C2843.654297,2981.113770 2824.082275,2984.470215 2803.008545,2987.067871 
	C2802.479248,2982.791016 2801.625000,2979.097656 2801.626709,2975.404785 
	C2801.646484,2934.092529 2802.215088,2892.776123 2801.811523,2851.468994 
	C2801.277588,2796.817627 2800.108398,2742.171875 2799.010010,2687.527588 
	C2798.581543,2666.206055 2798.032959,2644.870605 2796.785156,2623.585693 
	C2794.395020,2582.821289 2798.665527,2542.350098 2801.424072,2501.812012 
	C2803.007324,2478.546875 2805.659668,2455.346191 2806.897217,2432.067139 
	C2809.727295,2378.827881 2812.648926,2325.578369 2814.282715,2272.294678 
	C2815.850586,2221.148438 2805.965820,2171.552734 2790.085693,2123.101807 
	C2783.865479,2104.123779 2777.302246,2085.256348 2770.713623,2066.402344 
	C2765.803711,2052.352539 2763.710693,2037.968994 2764.982422,2023.152954 
	C2765.260010,2019.922241 2766.325928,2016.759033 2767.232910,2012.636353 
	C2772.179199,2012.939331 2776.745605,2012.834839 2781.176514,2013.559082 
	C2797.606689,2016.244751 2813.948975,2019.494507 2830.412354,2021.939941 
	C2838.939209,2023.206299 2847.644287,2023.566895 2856.280762,2023.739502 
	C2871.427979,2024.042358 2885.258057,2019.530884 2897.347412,2010.442505 
	C2909.062744,2001.635254 2920.611816,1992.584717 2931.895508,1983.232666 
	C2941.286377,1975.449341 2947.321045,1964.986572 2953.073486,1954.407227 
	C2966.172119,1930.315552 2975.808838,1904.792847 2984.176514,1878.769287 
	C2997.863770,1836.202393 3008.073975,1792.931519 3013.229248,1748.366089 
	C3016.667236,1718.647217 3013.850586,1689.719238 3006.488525,1661.217773 
	C2990.185547,1598.102295 2962.885742,1539.704346 2927.342041,1485.240845 
	C2918.658447,1471.934692 2907.869385,1459.849731 2897.068604,1448.104370 
	C2852.803223,1399.968384 2804.939453,1355.508545 2756.287842,1311.888184 
	C2741.774414,1298.875610 2724.846436,1289.460571 2707.531006,1280.836670 
	C2692.631836,1273.416016 2677.617432,1266.148804 2662.269531,1259.733521 
	C2651.401123,1255.190552 2647.521240,1247.724365 2647.449951,1236.428101 
	C2647.298340,1212.379761 2648.700439,1188.479370 2651.871094,1164.652832 
	C2652.707764,1158.367188 2655.370361,1153.261841 2660.211914,1149.278320 
	C2662.705078,1147.227051 2665.328125,1145.334106 2668.875732,1142.616211 
	C2655.929932,1124.009033 2654.744385,1102.662720 2651.496826,1081.747070 
	C2649.354736,1067.951538 2645.937500,1054.342529 2642.781006,1040.721802 
	C2641.584229,1035.557373 2639.421631,1030.623657 2637.864746,1025.534180 
	C2634.078613,1013.156738 2626.012451,1006.669617 2612.837646,1006.929016 
	C2608.176025,1007.020874 2603.478271,1006.548218 2598.852051,1006.955505 
	C2566.352539,1009.816956 2533.802979,1012.276611 2501.397949,1015.988953 
	C2474.719482,1019.045227 2416.924561,1034.237793 2392.009033,1043.369385 
	C2391.819824,1046.691528 2391.320801,1050.542236 2391.431641,1054.375244 
	C2391.874756,1069.699341 2392.659180,1085.014282 2393.003662,1100.339722 
	C2393.166748,1107.593872 2392.622803,1114.864014 2392.394043,1122.298218 
	C2365.280273,1135.245728 2338.979980,1147.805054 2313.563721,1159.942139 
	C2311.383789,1166.007202 2311.421631,1170.296143 2317.643311,1174.173706 
	C2340.766357,1162.853638 2365.373291,1153.149902 2393.899902,1152.992188 
	C2394.349854,1157.414795 2395.143799,1161.736938 2395.172363,1166.064087 
	C2395.356934,1194.041626 2395.300049,1222.020996 2395.507568,1249.998169 
	C2395.551758,1255.981689 2396.181885,1261.979248 2396.845703,1267.936401 
	C2398.551270,1283.237915 2404.117920,1295.981079 2418.789307,1303.645508 
	C2425.119141,1306.952271 2430.472900,1312.127075 2437.711182,1317.528931 
	C2418.875732,1329.700928 2397.869141,1330.293457 2377.474365,1337.644653 
	C2380.770508,1341.581421 2382.605957,1345.375244 2385.622559,1347.086060 
	C2396.032715,1352.989990 2406.678711,1358.553345 2417.565186,1363.522705 
	C2430.866943,1369.594482 2444.502197,1374.935547 2459.405273,1381.184814 
	C2456.657959,1384.681274 2454.537842,1387.597168 2452.193848,1390.320679 
	C2446.116943,1397.381714 2439.284912,1403.903198 2434.017822,1411.514526 
	C2429.943359,1417.402466 2426.625488,1424.337769 2424.969971,1431.283936 
	C2418.494629,1458.457642 2413.521484,1486.000366 2406.657227,1513.067871 
	C2397.939209,1547.445679 2392.483398,1582.077393 2391.223389,1617.589722 
	C2389.356934,1670.200439 2386.001221,1722.756958 2383.806885,1775.358643 
	C2383.418457,1784.674316 2380.492920,1792.114380 2374.534180,1798.802734 
	C2358.281250,1817.045288 2338.324463,1827.833740 2313.625488,1829.033691 
	C2276.346680,1830.845093 2239.076660,1832.912964 2201.780273,1834.241943 
	C2190.532471,1834.642578 2179.213379,1832.896973 2167.920898,1832.235107 
	C2151.286377,1831.260254 2134.644043,1830.422363 2118.012451,1829.402466 
	C2115.442383,1829.244873 2112.912842,1828.427368 2109.940186,1827.829712 
	C2106.961914,1810.963867 2108.673584,1794.317749 2108.386719,1777.772705 
	C2108.086426,1760.446655 2108.273193,1743.111328 2108.334229,1725.780151 
	C2108.392822,1709.116577 2108.536865,1692.453003 2108.691406,1675.789917 
	C2108.852295,1658.460327 2108.928467,1641.128174 2109.304688,1623.802856 
	C2109.665771,1607.145508 2110.334229,1590.494263 2110.921143,1573.842163 
	C2111.531738,1556.525757 2111.548340,1539.154419 2113.042236,1521.912720 
	C2114.464600,1505.497437 2117.464600,1489.218506 2116.427979,1470.847168 
	C2106.143066,1475.849121 2097.394775,1480.171753 2095.538330,1491.360962 
	C2092.816650,1507.766479 2089.612305,1524.170532 2088.251709,1540.709961 
	C2082.401855,1611.830811 2081.142822,1683.145874 2080.809814,1754.465210 
	C2080.520264,1816.453613 2080.720459,1878.445923 2080.997070,1940.435181 
	C2081.434570,2038.453003 2076.449707,2136.325684 2073.563232,2234.256104 
	C2071.226807,2313.535645 2068.922363,2392.823486 2071.090820,2472.151611 
	C2072.894043,2538.109863 2074.017090,2604.099121 2076.897705,2670.010986 
	C2078.816650,2713.922363 2083.249023,2757.725342 2086.640137,2801.570557 
	C2089.826416,2842.761719 2093.267822,2883.934082 2096.264160,2925.138916 
	C2096.966309,2934.794434 2098.928223,2944.507568 2098.503174,2956.318359 
	C2089.824707,2952.302002 2083.094482,2949.659912 2076.814209,2946.200928 
	C2045.307617,2928.846924 2013.836548,2911.425293 1982.508423,2893.751465 
	C1940.118286,2869.836670 1897.208252,2847.020996 1851.282837,2830.483398 
	C1837.507935,2825.522949 1823.449341,2821.352539 1809.662476,2816.423584 
	C1794.457153,2810.987305 1779.611328,2811.843018 1764.813843,2817.732910 
	C1761.722290,2818.963623 1758.563110,2820.024414 1752.830078,2820.606934 
	C1718.421875,2794.974121 1687.914551,2768.412842 1658.826294,2740.229492 
	C1604.345337,2687.443115 1555.564575,2629.804443 1512.860840,2566.629395 
	C1519.497925,2562.305908 1525.286499,2559.022461 1531.114624,2555.811035 
	C1601.673706,2516.929932 1672.438843,2478.416748 1742.721436,2439.042236 
	C1780.468628,2417.895020 1817.452881,2395.379639 1854.635986,2373.237549 
	C1863.198608,2368.138672 1871.366943,2362.307617 1879.342041,2356.314697 
	C1885.622314,2351.595215 1886.550171,2347.778564 1883.588623,2340.663330 
	C1881.295654,2335.154541 1878.567871,2329.751221 1875.405151,2324.693848 
	C1866.227051,2310.017578 1857.393188,2295.060059 1847.247559,2281.066406 
	C1804.248169,2221.758545 1761.336792,2162.374268 1717.398193,2103.763916 
	C1678.249023,2051.541992 1637.746826,2000.335205 1597.986938,1948.568848 
	C1594.545776,1944.088623 1589.036865,1940.511353 1589.570435,1932.488403 
	C1607.427490,1935.907593 1624.982788,1939.318726 1642.558716,1942.620972 
	C1660.219360,1945.938843 1677.910034,1949.096680 1695.569580,1952.419800 
	C1712.574097,1955.619385 1729.550537,1958.967773 1746.548828,1962.200928 
	C1764.202026,1965.558472 1781.815063,1969.169434 1799.541016,1972.091064 
	C1816.965210,1974.962769 1833.998657,1980.852661 1852.115112,1980.310669 
	C1852.842285,1972.069824 1846.602295,1969.154541 1842.736938,1965.097412 
	C1763.705811,1882.142578 1684.546631,1799.309692 1605.382324,1716.481812 
	C1556.594727,1665.436768 1507.714355,1614.480591 1459.021362,1563.345581 
	C1455.168091,1559.299072 1449.307983,1556.223022 1449.458618,1548.812256 
	C1475.268433,1540.226196 1502.470337,1536.673950 1529.307739,1526.993652 
	C1526.499756,1519.806519 1524.268311,1513.683472 1521.739258,1507.686035 
	C1499.239136,1454.326660 1476.631714,1401.012573 1454.224609,1347.614380 
	C1451.685547,1341.563477 1450.185791,1335.076660 1448.204102,1328.791992 
	C1451.825439,1323.275391 1455.724854,1317.919800 1459.026855,1312.218384 
	C1514.830444,1215.868408 1582.621338,1128.827515 1663.259644,1052.098999 
	C1824.463379,898.710938 2013.655396,797.801880 2231.536377,751.309326 
	C2298.794434,736.957397 2366.780029,729.141541 2435.546875,726.677979 
	C2478.266602,725.147522 2520.900879,725.976624 2563.373291,729.153564 
	C2686.459961,738.360413 2805.600586,765.607178 2919.553955,813.321289 
	C3172.529785,919.246155 3366.159912,1092.185059 3500.969727,1331.003052 
	C3503.916016,1336.222046 3506.790771,1341.481445 3510.622314,1349.028076 
	C3509.470215,1356.915405 3507.592041,1362.579712 3505.286133,1368.063965 
	C3493.172852,1396.875732 3480.848145,1425.599609 3468.884277,1454.473022 
	C3467.214111,1458.503662 3463.649902,1462.343262 3465.999512,1468.591553 
	C3468.936279,1469.583862 3472.531494,1471.053955 3476.257812,1472.015015 
	C3496.211914,1477.160400 3516.209473,1482.136108 3536.161377,1487.289307 
	C3539.075195,1488.041870 3543.055420,1487.613403 3543.672363,1493.247192 
	C3540.669922,1496.659912 3537.350586,1500.706665 3533.749023,1504.484375 
	C3490.584961,1549.762451 3447.391113,1595.012085 3404.181396,1640.246338 
	C3320.059814,1728.309082 3235.901611,1816.336548 3151.853516,1904.469238 
	C3147.384277,1909.155884 3143.792236,1914.679321 3138.917969,1920.004883 
	C3138.204346,1921.092407 3138.365234,1921.988281 3138.526367,1922.884277 
	C3139.435547,1922.296021 3140.344727,1921.707764 3142.908936,1921.487549 
	C3193.626709,1912.729614 3242.702637,1903.676636 3291.746582,1894.451172 
	C3322.477051,1888.670288 3353.132080,1882.483154 3383.885498,1876.831177 
	C3389.937256,1875.718872 3396.320312,1873.237305 3404.526367,1876.658936 
	C3400.683838,1881.948853 3397.767578,1886.202026 3394.611572,1890.269165 
	C3374.608887,1916.047607 3354.428955,1941.689087 3334.537598,1967.552856 
	C3272.022461,2048.838135 3209.458740,2130.093994 3151.020020,2214.405029 
	C3139.648926,2230.810547 3128.673828,2247.531494 3118.344238,2264.607910 
	C3102.950684,2290.056396 3103.143311,2291.139648 3127.481445,2306.808350 
	C3149.303711,2320.857178 3171.317627,2334.701416 3193.945801,2347.389160 
	C3282.195801,2396.870361 3370.739990,2445.827393 3459.113525,2495.088867 
	C3465.422607,2498.605957 3471.241455,2503.003418 3476.418945,2508.210938 
	C3410.004395,2615.771973 3329.900879,2709.660889 3234.934326,2790.853760 
	C3228.395752,2796.443604 3222.189453,2802.421631 3215.828613,2808.219482 
z"/>
<path fill="#0B3644" opacity="1.000000" stroke="none" 
	d="
M3139.792236,1919.813354 
	C3143.792236,1914.679321 3147.384277,1909.155884 3151.853516,1904.469238 
	C3235.901611,1816.336548 3320.059814,1728.309082 3404.181396,1640.246338 
	C3447.391113,1595.012085 3490.584961,1549.762451 3533.749023,1504.484375 
	C3537.350586,1500.706665 3540.669922,1496.659912 3543.672363,1493.247192 
	C3543.055420,1487.613403 3539.075195,1488.041870 3536.161377,1487.289307 
	C3516.209473,1482.136108 3496.211914,1477.160400 3476.257812,1472.015015 
	C3472.531494,1471.053955 3468.936279,1469.583862 3465.999512,1468.591553 
	C3463.649902,1462.343262 3467.214111,1458.503662 3468.884277,1454.473022 
	C3480.848145,1425.599609 3493.172852,1396.875732 3505.286133,1368.063965 
	C3507.592041,1362.579712 3509.470215,1356.915405 3511.701904,1349.899658 
	C3520.535645,1339.469727 3522.369629,1327.119995 3527.116455,1316.291626 
	C3545.001709,1275.493164 3562.039551,1234.322876 3579.370361,1193.281616 
	C3591.528809,1164.488892 3603.616211,1135.666260 3615.792480,1106.881226 
	C3632.890381,1066.461792 3650.080566,1026.081177 3667.156738,985.652344 
	C3679.576416,956.249146 3691.864014,926.790283 3704.229980,897.364197 
	C3716.338623,868.550171 3728.388184,839.710876 3740.660889,810.966919 
	C3743.237549,804.931824 3746.675781,799.264587 3749.447510,793.944946 
	C3755.090088,793.661743 3755.602051,797.229492 3756.507568,800.314941 
	C3762.870605,821.996887 3769.203125,843.687683 3775.532471,865.379517 
	C3787.260498,905.574585 3799.014893,945.762085 3810.694092,985.971375 
	C3824.598145,1033.839966 3838.366455,1081.748047 3852.325684,1129.600342 
	C3860.702881,1158.316650 3869.382812,1186.944336 3877.838623,1215.637939 
	C3893.432861,1268.553955 3908.843506,1321.524536 3924.561523,1374.403809 
	C3934.600342,1408.176514 3944.971191,1441.851074 3955.340332,1475.524536 
	C3972.754150,1532.075317 3990.200684,1588.616333 4007.824951,1645.101929 
	C4012.366211,1659.656860 4017.622314,1673.989014 4022.517090,1688.327271 
	C4019.563965,1692.212280 4016.489990,1690.258423 4013.686523,1688.715698 
	C4007.865234,1685.511963 4001.989502,1682.350342 3996.457520,1678.686401 
	C3957.074463,1652.602051 3917.779785,1626.384277 3878.432617,1600.245483 
	C3874.557861,1597.671387 3870.519287,1595.343750 3865.054443,1591.986694 
	C3863.242676,1590.893555 3862.933105,1590.715576 3862.623779,1590.537598 
	C3863.121826,1590.993896 3863.619873,1591.450317 3864.117676,1591.906738 
	C3865.011719,1596.395142 3865.125000,1601.227295 3866.925781,1605.316162 
	C3879.000977,1632.731079 3891.422363,1659.993530 3903.754395,1687.295044 
	C3921.840576,1727.335571 3939.928955,1767.375122 3958.050537,1807.399536 
	C3965.739990,1824.383057 3973.533203,1841.319580 3981.248535,1858.291504 
	C4007.145264,1915.260254 4032.989502,1972.252930 4058.937012,2029.198486 
	C4068.324707,2049.800293 4078.051514,2070.247559 4087.437988,2090.849854 
	C4105.654297,2130.831543 4123.691406,2170.894775 4141.898438,2210.881104 
	C4151.004395,2230.879883 4160.210938,2250.834473 4169.566406,2270.717529 
	C4183.460938,2300.246338 4197.573730,2329.672363 4211.469727,2359.200928 
	C4213.398438,2363.299316 4214.616699,2367.731934 4215.961426,2371.450195 
	C4212.657227,2375.907959 4209.473633,2374.647705 4206.554688,2373.033691 
	C4195.489746,2366.914062 4184.301270,2360.979736 4173.541504,2354.354004 
	C4157.107422,2344.232910 4140.864258,2333.787842 4124.765137,2323.139404 
	C4085.343994,2297.065430 4046.053711,2270.793701 4006.705078,2244.610352 
	C4001.838135,2241.371826 3997.491943,2236.927734 3990.933105,2237.447510 
	C3987.372314,2242.387939 3991.057861,2246.628174 3992.345947,2250.701172 
	C4005.990234,2293.854980 4020.037109,2336.881104 4033.778564,2380.004395 
	C4060.652588,2464.338867 4087.452148,2548.696777 4114.183105,2633.076416 
	C4128.853516,2679.385498 4143.479492,2725.709717 4157.844727,2772.114014 
	C4177.717285,2836.308105 4197.326660,2900.583252 4217.047852,2964.823975 
	C4227.982910,3000.445557 4239.126953,3036.004639 4249.775879,3071.711426 
	C4256.997559,3095.927002 4263.570312,3120.337402 4270.299805,3144.697510 
	C4271.169922,3147.846924 4271.449707,3151.205322 4271.627930,3154.487549 
	C4271.813477,3157.903564 4267.569824,3160.937988 4264.760254,3159.270508 
	C4260.809570,3156.925781 4256.925781,3154.321045 4253.478027,3151.297363 
	C4196.805664,3101.594238 4145.170410,3046.728027 4092.138428,2993.308594 
	C4059.765869,2960.698486 4028.302246,2927.184082 3996.535645,2893.975098 
	C3970.757568,2867.026611 3945.100586,2839.962158 3919.457275,2812.885254 
	C3897.939209,2790.163330 3876.377686,2767.479980 3855.091309,2744.541748 
	C3829.741943,2717.225342 3804.688965,2689.634277 3779.450928,2662.214111 
	C3774.487549,2656.821533 3769.168213,2651.757080 3764.182617,2646.383789 
	C3750.147949,2631.259521 3736.290771,2615.969727 3722.176270,2600.920654 
	C3716.806885,2595.195801 3711.753418,2588.985840 3704.931885,2584.656738 
	C3698.130859,2588.753906 3698.188721,2595.431396 3696.914307,2600.767578 
	C3689.502686,2631.795410 3682.503418,2662.925781 3675.707031,2694.095947 
	C3661.410400,2759.665039 3647.098877,2825.232910 3633.331299,2890.914062 
	C3630.344971,2905.162109 3629.603271,2919.882324 3627.861084,2934.388916 
	C3625.566406,2953.492920 3623.305908,2972.600830 3621.027344,2991.706787 
	C3620.869385,2993.030029 3620.604248,2994.344482 3620.519287,2995.671387 
	C3618.946533,3020.216309 3617.536621,3044.772461 3615.782471,3069.304199 
	C3614.740479,3083.875977 3613.162842,3098.409424 3611.415039,3114.719727 
	C3601.279053,3113.925293 3596.160645,3105.755615 3589.967529,3098.995361 
	C3583.721436,3092.176514 3578.247559,3084.620117 3571.748535,3078.067871 
	C3537.623779,3043.662842 3503.706787,3009.033691 3468.861328,2975.368896 
	C3446.513428,2953.778320 3422.636963,2933.773193 3399.585205,2912.903320 
	C3396.722412,2910.311279 3394.718506,2906.770264 3392.280273,2900.807129 
	C3402.564697,2876.404541 3412.903320,2854.872070 3423.201172,2833.320312 
	C3435.515137,2807.549316 3446.273926,2781.183105 3454.625000,2753.821289 
	C3471.078613,2699.911377 3487.828857,2646.091553 3504.444824,2592.230957 
	C3510.683838,2572.006592 3516.889404,2551.771729 3523.296143,2530.937012 
	C3508.120850,2521.625000 3494.531006,2510.927246 3477.288086,2506.991455 
	C3471.241455,2503.003418 3465.422607,2498.605957 3459.113525,2495.088867 
	C3370.739990,2445.827393 3282.195801,2396.870361 3193.945801,2347.389160 
	C3171.317627,2334.701416 3149.303711,2320.857178 3127.481445,2306.808350 
	C3103.143311,2291.139648 3102.950684,2290.056396 3118.344238,2264.607910 
	C3128.673828,2247.531494 3139.648926,2230.810547 3151.020020,2214.405029 
	C3209.458740,2130.093994 3272.022461,2048.838135 3334.537598,1967.552856 
	C3354.428955,1941.689087 3374.608887,1916.047607 3394.611572,1890.269165 
	C3397.767578,1886.202026 3400.683838,1881.948853 3404.526367,1876.658936 
	C3396.320312,1873.237305 3389.937256,1875.718872 3383.885498,1876.831177 
	C3353.132080,1882.483154 3322.477051,1888.670288 3291.746582,1894.451172 
	C3242.702637,1903.676636 3193.626709,1912.729614 3142.540771,1921.164062 
	C3140.517334,1920.472656 3139.792236,1919.813354 3139.792236,1919.813354 
z"/>
<path fill="#0B3644" opacity="1.000000" stroke="none" 
	d="
M1447.120850,1327.818604 
	C1450.185791,1335.076660 1451.685547,1341.563477 1454.224609,1347.614380 
	C1476.631714,1401.012573 1499.239136,1454.326660 1521.739258,1507.686035 
	C1524.268311,1513.683472 1526.499756,1519.806519 1529.307739,1526.993652 
	C1502.470337,1536.673950 1475.268433,1540.226196 1449.458618,1548.812256 
	C1449.307983,1556.223022 1455.168091,1559.299072 1459.021362,1563.345581 
	C1507.714355,1614.480591 1556.594727,1665.436768 1605.382324,1716.481812 
	C1684.546631,1799.309692 1763.705811,1882.142578 1842.736938,1965.097412 
	C1846.602295,1969.154541 1852.842285,1972.069824 1852.115112,1980.310669 
	C1833.998657,1980.852661 1816.965210,1974.962769 1799.541016,1972.091064 
	C1781.815063,1969.169434 1764.202026,1965.558472 1746.548828,1962.200928 
	C1729.550537,1958.967773 1712.574097,1955.619385 1695.569580,1952.419800 
	C1677.910034,1949.096680 1660.219360,1945.938843 1642.558716,1942.620972 
	C1624.982788,1939.318726 1607.427490,1935.907593 1589.570435,1932.488403 
	C1589.036865,1940.511353 1594.545776,1944.088623 1597.986938,1948.568848 
	C1637.746826,2000.335205 1678.249023,2051.541992 1717.398193,2103.763916 
	C1761.336792,2162.374268 1804.248169,2221.758545 1847.247559,2281.066406 
	C1857.393188,2295.060059 1866.227051,2310.017578 1875.405151,2324.693848 
	C1878.567871,2329.751221 1881.295654,2335.154541 1883.588623,2340.663330 
	C1886.550171,2347.778564 1885.622314,2351.595215 1879.342041,2356.314697 
	C1871.366943,2362.307617 1863.198608,2368.138672 1854.635986,2373.237549 
	C1817.452881,2395.379639 1780.468628,2417.895020 1742.721436,2439.042236 
	C1672.438843,2478.416748 1601.673706,2516.929932 1531.114624,2555.811035 
	C1525.286499,2559.022461 1519.497925,2562.305908 1511.432129,2566.865967 
	C1499.227783,2573.521973 1489.088379,2578.542480 1479.398926,2584.317871 
	C1471.744751,2588.880615 1470.779785,2592.407715 1472.911621,2601.013428 
	C1473.230225,2602.299316 1473.857544,2603.505371 1474.249390,2604.776855 
	C1484.236938,2637.190186 1494.158325,2669.624268 1504.203369,2702.019775 
	C1516.809937,2742.676514 1529.439575,2783.326172 1542.232666,2823.924561 
	C1545.428223,2834.065674 1548.630737,2844.292969 1552.974121,2853.967041 
	C1563.331787,2877.036377 1574.401489,2899.785645 1585.118408,2922.694580 
	C1588.191650,2929.263916 1592.723267,2935.363037 1592.143311,2943.195557 
	C1588.452393,2947.825928 1585.168457,2952.863037 1581.009399,2957.026123 
	C1519.799072,3018.295898 1458.497925,3079.475342 1397.117065,3140.574219 
	C1392.935303,3144.736328 1387.945557,3148.086914 1382.037109,3152.099121 
	C1377.649292,3132.654785 1376.266846,3112.826660 1375.404419,3092.851562 
	C1374.519531,3072.352051 1371.165405,3051.961670 1368.951904,3031.516846 
	C1367.380005,3016.998779 1365.331665,3002.501953 1364.511841,2987.938477 
	C1362.859619,2958.589600 1356.379517,2930.035645 1350.229614,2901.523193 
	C1335.802612,2834.635742 1320.265381,2767.987793 1305.207031,2701.236572 
	C1301.990479,2686.978027 1299.047974,2672.656250 1295.661865,2658.438965 
	C1294.607178,2654.010254 1292.507812,2649.830566 1291.026367,2645.906494 
	C1283.603027,2644.473389 1280.772339,2649.815430 1277.320679,2653.470703 
	C1260.874390,2670.887451 1244.598633,2688.466553 1228.368042,2706.085449 
	C1202.676636,2733.975586 1177.070068,2761.943604 1151.424561,2789.875977 
	C1150.523682,2790.857422 1149.587158,2791.806396 1148.667480,2792.770752 
	C1116.959229,2826.014648 1085.332153,2859.335938 1053.522827,2892.482666 
	C1012.949463,2934.761475 971.420898,2976.156006 931.771729,3019.281006 
	C879.434021,3076.207031 823.644531,3129.654297 769.055298,3184.313232 
	C757.794373,3195.588623 745.389099,3205.750732 733.157715,3216.004150 
	C730.498474,3218.233887 726.321533,3218.653076 721.440002,3220.412109 
	C721.440002,3215.560791 720.775635,3212.249268 721.546814,3209.314697 
	C726.952942,3188.741455 732.251038,3168.125000 738.342407,3147.749268 
	C753.583740,3096.767334 769.072144,3045.857666 784.750244,2995.008057 
	C803.369202,2934.620605 822.212769,2874.301758 841.104797,2813.998779 
	C856.617249,2764.483643 872.312866,2715.025635 887.981812,2665.559570 
	C906.866516,2605.941406 925.762512,2546.326660 944.739624,2486.737549 
	C962.908264,2429.687500 981.212463,2372.680420 999.376770,2315.628906 
	C1001.127747,2310.129150 1002.310303,2304.448242 1003.571167,2299.569336 
	C998.030334,2294.880859 994.664795,2298.529053 991.702942,2300.428955 
	C978.258240,2309.052734 964.913391,2317.854004 951.833862,2327.021240 
	C901.673096,2362.179199 849.978210,2394.959717 797.655151,2426.764404 
	C792.063232,2430.163330 785.828430,2432.504639 778.025940,2436.226807 
	C778.025940,2432.152588 777.313232,2429.593994 778.139526,2427.710693 
	C784.288391,2413.694580 790.713196,2399.798584 797.106445,2385.890137 
	C818.787781,2338.722900 840.491882,2291.565674 862.187622,2244.404785 
	C870.811646,2225.658447 879.437561,2206.912598 888.060303,2188.165527 
	C911.979309,2136.162109 936.000793,2084.205566 959.788391,2032.141968 
	C986.893127,1972.818481 1013.791138,1913.400513 1040.775024,1854.021851 
	C1060.323608,1811.004517 1079.868652,1767.985718 1099.409302,1724.964844 
	C1106.565796,1709.209106 1113.941528,1693.546631 1120.745972,1677.640015 
	C1123.860352,1670.359985 1125.834595,1662.592285 1128.747314,1653.406982 
	C1128.788452,1651.857666 1128.408203,1651.946899 1128.027954,1652.036133 
	C1119.548340,1657.218994 1110.902588,1662.150757 1102.617676,1667.628296 
	C1066.582764,1691.452026 1030.738281,1715.565186 994.600647,1739.231201 
	C988.634521,1743.138428 981.551636,1745.340332 973.492432,1748.165039 
	C972.000000,1748.000000 971.994995,1747.995117 971.994995,1747.995117 
	C972.472778,1744.723755 972.393066,1741.247192 973.510925,1738.211548 
	C994.664490,1680.769653 1011.246948,1621.883179 1028.955322,1563.352661 
	C1038.195557,1532.811523 1047.540771,1502.301880 1056.658569,1471.724365 
	C1070.142456,1426.505249 1083.432373,1381.228271 1096.868530,1335.994751 
	C1108.413330,1297.128662 1120.215698,1258.338501 1131.603394,1219.426514 
	C1149.523315,1158.194092 1167.098389,1096.860718 1184.998413,1035.622314 
	C1196.373779,996.705994 1208.137085,957.903198 1219.595215,919.010803 
	C1224.101685,903.714844 1227.990234,888.233643 1232.673462,872.994568 
	C1234.975220,865.504883 1235.868286,857.311584 1242.088379,849.871399 
	C1244.671631,854.508240 1247.225952,858.237976 1248.948608,862.318787 
	C1264.979980,900.293945 1280.769043,938.371460 1296.825806,976.335754 
	C1313.403564,1015.531677 1330.255005,1054.611694 1346.884766,1093.785522 
	C1359.356079,1123.163574 1371.623535,1152.628174 1384.058716,1182.021729 
	C1400.898193,1221.825806 1417.785034,1261.609985 1434.713745,1301.376465 
	C1438.352417,1309.923828 1442.255859,1318.358521 1447.120850,1327.818604 
z"/>
<path fill="#0B3644" opacity="1.000000" stroke="none" 
	d="
M972.002441,1748.002441 
	C971.630493,1748.138184 971.256042,1748.271362 971.438232,1748.199707 
	C971.994995,1747.995117 972.000000,1748.000000 972.002441,1748.002441 
z"/>
<path fill="#FCBC6E" opacity="1.000000" stroke="none" 
	d="
M2445.819092,2326.157715 
	C2437.270508,2398.045654 2429.120361,2468.180664 2420.836670,2538.300293 
	C2415.905762,2580.040283 2413.939209,2621.950195 2413.010254,2663.936523 
	C2411.167725,2747.220947 2409.247803,2830.503906 2407.331787,2913.786865 
	C2407.179688,2920.409424 2406.809326,2927.027100 2406.534180,2933.791992 
	C2403.177002,2935.665039 2400.460938,2937.683350 2397.414062,2938.798340 
	C2378.035400,2945.889893 2358.901855,2953.917480 2339.082520,2959.480469 
	C2307.465088,2968.355225 2277.430176,2980.772217 2248.530518,2996.054932 
	C2241.032227,3000.020020 2233.895508,3001.656494 2225.625977,2999.942383 
	C2200.818115,2994.800781 2176.383301,2988.438232 2151.886719,2978.968994 
	C2151.658691,2974.390869 2150.994141,2969.836182 2151.277832,2965.341797 
	C2153.544678,2929.431885 2156.225586,2893.546875 2158.328857,2857.627930 
	C2161.604980,2801.687256 2161.890625,2745.733398 2157.812744,2689.806152 
	C2156.068604,2665.884033 2154.743164,2641.918457 2152.369629,2618.057861 
	C2147.557617,2569.678955 2141.880859,2521.385498 2137.124512,2473.001465 
	C2134.779785,2449.145996 2132.852783,2425.190186 2132.196045,2401.239746 
	C2130.515381,2339.953857 2130.122070,2278.631104 2128.282715,2217.351318 
	C2127.224121,2182.071777 2124.445312,2146.841309 2122.281738,2111.598145 
	C2119.461182,2065.649658 2119.619873,2019.675293 2121.094971,1973.700317 
	C2121.414551,1963.736694 2122.722168,1953.766602 2124.182861,1943.889526 
	C2125.421875,1935.513184 2129.023926,1931.891846 2137.358643,1931.653198 
	C2147.307617,1931.368164 2157.501221,1931.219238 2167.227783,1932.992554 
	C2216.176514,1941.917358 2265.479248,1940.377686 2314.751221,1938.462036 
	C2339.356201,1937.505371 2363.874023,1934.484985 2388.461670,1932.858765 
	C2406.306641,1931.678345 2421.993652,1925.134766 2436.883057,1915.749146 
	C2444.170410,1911.155273 2451.648193,1906.657349 2459.537842,1903.280151 
	C2468.123291,1899.605103 2473.631104,1902.583374 2476.075684,1911.709106 
	C2477.960205,1918.742798 2479.399658,1926.035767 2479.853271,1933.287598 
	C2481.559570,1960.556763 2483.940918,1987.860962 2483.829102,2015.142822 
	C2483.733643,2038.388306 2481.338379,2061.713623 2478.585449,2084.840088 
	C2472.996582,2131.792725 2466.628662,2178.655029 2460.291748,2225.515381 
	C2455.829834,2258.509766 2450.888672,2291.439941 2445.819092,2326.157715 
z"/>
<path fill="#07838B" opacity="1.000000" stroke="none" 
	d="
M3476.418945,2508.210938 
	C3494.531006,2510.927246 3508.120850,2521.625000 3523.296143,2530.937012 
	C3516.889404,2551.771729 3510.683838,2572.006592 3504.444824,2592.230957 
	C3487.828857,2646.091553 3471.078613,2699.911377 3454.625000,2753.821289 
	C3446.273926,2781.183105 3435.515137,2807.549316 3423.201172,2833.320312 
	C3412.903320,2854.872070 3402.564697,2876.404541 3392.133057,2899.487793 
	C3383.386719,2900.232666 3378.257812,2893.540771 3372.165283,2888.758301 
	C3355.562744,2875.726074 3339.681396,2861.759521 3322.868164,2849.016357 
	C3309.225342,2838.676514 3294.786621,2829.356689 3280.441162,2819.981689 
	C3266.196289,2810.673096 3250.491699,2806.503418 3233.367920,2808.107422 
	C3228.777832,2808.537842 3224.133789,2808.392090 3217.671631,2808.364990 
	C3222.189453,2802.421631 3228.395752,2796.443604 3234.934326,2790.853760 
	C3329.900879,2709.660889 3410.004395,2615.771973 3476.418945,2508.210938 
z"/>
<path fill="#07838B" opacity="1.000000" stroke="none" 
	d="
M1593.475098,2943.146240 
	C1592.723267,2935.363037 1588.191650,2929.263916 1585.118408,2922.694580 
	C1574.401489,2899.785645 1563.331787,2877.036377 1552.974121,2853.967041 
	C1548.630737,2844.292969 1545.428223,2834.065674 1542.232666,2823.924561 
	C1529.439575,2783.326172 1516.809937,2742.676514 1504.203369,2702.019775 
	C1494.158325,2669.624268 1484.236938,2637.190186 1474.249390,2604.776855 
	C1473.857544,2603.505371 1473.230225,2602.299316 1472.911621,2601.013428 
	C1470.779785,2592.407715 1471.744751,2588.880615 1479.398926,2584.317871 
	C1489.088379,2578.542480 1499.227783,2573.521973 1510.602051,2567.939453 
	C1555.564575,2629.804443 1604.345337,2687.443115 1658.826294,2740.229492 
	C1687.914551,2768.412842 1718.421875,2794.974121 1751.301025,2821.027344 
	C1720.984863,2839.644531 1691.790649,2860.447266 1664.420898,2883.780518 
	C1646.208984,2899.306885 1628.452026,2915.365967 1610.364624,2931.040039 
	C1605.413696,2935.330322 1600.005127,2939.092285 1593.475098,2943.146240 
z"/>
<path fill="#F7B96C" opacity="1.000000" stroke="none" 
	d="
M2643.497314,2918.205078 
	C2638.620850,2922.511719 2634.554932,2926.359131 2629.764404,2927.804932 
	C2605.573486,2935.106201 2580.757812,2939.497314 2554.602295,2943.070801 
	C2553.865967,2938.658447 2552.920654,2934.984863 2552.682861,2931.266113 
	C2549.394287,2879.816650 2555.429199,2828.908691 2561.542969,2777.988037 
	C2566.858398,2733.715820 2571.564453,2689.369873 2577.059814,2645.120850 
	C2578.858643,2630.635010 2581.394531,2616.114258 2585.138428,2602.020020 
	C2597.776367,2554.448486 2611.079590,2507.053467 2624.222656,2459.617188 
	C2625.453613,2455.174316 2627.313721,2450.901611 2629.004639,2446.598389 
	C2629.144531,2446.241699 2630.231445,2446.256592 2631.262939,2446.005127 
	C2632.542725,2465.252686 2633.948730,2484.427979 2635.061035,2503.620361 
	C2636.525635,2528.880127 2637.804443,2554.151611 2639.082275,2579.421875 
	C2641.739014,2631.958740 2645.269043,2684.473633 2646.698975,2737.044678 
	C2648.038086,2786.284424 2647.317871,2835.586182 2647.061035,2884.858398 
	C2647.005859,2895.457031 2645.052490,2906.045410 2643.497314,2918.205078 
z"/>
<path fill="#0B3644" opacity="1.000000" stroke="none" 
	d="
M3140.885498,1920.796143 
	C3140.344727,1921.707764 3139.435547,1922.296021 3138.526367,1922.884277 
	C3138.365234,1921.988281 3138.204346,1921.092407 3138.917969,1920.004883 
	C3139.792236,1919.813354 3140.517334,1920.472656 3140.885498,1920.796143 
z"/>
<path fill="#06848C" opacity="1.000000" stroke="none" 
	d="
M3864.064453,1591.951538 
	C3863.619873,1591.450317 3863.121826,1590.993896 3862.623779,1590.537598 
	C3862.933105,1590.715576 3863.242676,1590.893555 3863.738281,1591.588379 
	C3863.924316,1592.105347 3864.010742,1591.996460 3864.064453,1591.951538 
z"/>
<path fill="#06848C" opacity="1.000000" stroke="none" 
	d="
M1128.012817,1652.017090 
	C1128.408203,1651.946899 1128.788452,1651.857666 1128.561768,1651.864502 
	C1127.954956,1651.960693 1127.997681,1651.997803 1128.012817,1652.017090 
z"/>
</svg>